Coordinates
version=1
nRows=19
nColumns=34
inDegrees=yes

Units are S.I. units (second, meters, Newtons, ...)
If the header above contains a line with 'inDegrees', this indicates whether rotational values are in degrees (yes) or radians (no).

endheader
time	pelvis_tilt	pelvis_list	pelvis_rotation	pelvis_tx	pelvis_ty	pelvis_tz	hip_flexion_r	hip_adduction_r	hip_rotation_r	knee_angle_r	ankle_angle_r	subtalar_angle_r	mtp_angle_r	hip_flexion_l	hip_adduction_l	hip_rotation_l	knee_angle_l	ankle_angle_l	subtalar_angle_l	mtp_angle_l	lumbar_extension	lumbar_bending	lumbar_rotation	arm_flex_r	arm_add_r	arm_rot_r	elbow_flex_r	pro_sup_r	arm_flex_l	arm_add_l	arm_rot_l	elbow_flex_l	pro_sup_l
      7.28333330	     56.99325959	    -22.69645036	    162.01196312	     -0.09629934	      0.71892560	     -0.27739488	     36.32573004	     -1.06490744	      2.85541098	     58.91902165	      0.00000000	      0.00000000	      0.00000000	     32.86107093	      0.65821240	    -12.09670276	     62.00062560	      0.00000000	      0.00000000	      0.00000000	    -23.45710682	     -1.37548043	     -2.33982259	      0.00000000	      0.00000000	      0.00000000	      0.00000000	      0.00000000	      0.00000000	      0.00000000	      0.00000000	      0.00000000	      0.00000000
      7.30000000	     57.33829616	    -22.78059982	    161.99105621	     -0.09897495	      0.71692381	     -0.27850099	     36.31960230	     -1.06390675	      2.89435292	     58.62664241	      0.00000000	      0.00000000	      0.00000000	     32.88737451	      0.64487353	    -12.16136969	     61.73025225	      0.00000000	      0.00000000	      0.00000000	    -23.58441795	     -1.38195450	     -2.38520065	      0.00000000	      0.00000000	      0.00000000	      0.00000000	      0.00000000	      0.00000000	      0.00000000	      0.00000000	      0.00000000	      0.00000000
      7.31666670	     57.72240898	    -22.89104296	    162.01150709	     -0.10187336	      0.71477984	     -0.27996429	     36.24211418	     -1.01397857	      3.05712895	     58.14611464	      0.00000000	      0.00000000	      0.00000000	     32.89476009	      0.63249794	    -12.26172887	     61.39255961	      0.00000000	      0.00000000	      0.00000000	    -23.43671098	     -1.42404241	     -2.53747604	      0.00000000	      0.00000000	      0.00000000	      0.00000000	      0.00000000	      0.00000000	      0.00000000	      0.00000000	      0.00000000	      0.00000000
      7.33333330	     58.09395571	    -23.00114164	    162.09193437	     -0.10455138	      0.71294127	     -0.28130308	     36.21078643	     -1.01584008	      3.10260375	     57.78291229	      0.00000000	      0.00000000	      0.00000000	     32.95510423	      0.62919180	    -12.34539944	     61.10891165	      0.00000000	      0.00000000	      0.00000000	    -23.59513706	     -1.45837263	     -2.58707862	      0.00000000	      0.00000000	      0.00000000	      0.00000000	      0.00000000	      0.00000000	      0.00000000	      0.00000000	      0.00000000	      0.00000000
      7.35000000	     58.49933305	    -23.14090602	    162.19719818	     -0.10737501	      0.71098923	     -0.28290965	     36.12959738	     -0.99315898	      3.20967757	     57.26245165	      0.00000000	      0.00000000	      0.00000000	     32.97114480	      0.66253667	    -12.40335602	     60.69530846	      0.00000000	      0.00000000	      0.00000000	    -23.45381727	     -1.53935103	     -2.73447713	      0.00000000	      0.00000000	      0.00000000	      0.00000000	      0.00000000	      0.00000000	      0.00000000	      0.00000000	      0.00000000	      0.00000000
      7.36666670	     58.93148053	    -23.32384390	    162.38379110	     -0.10995416	      0.70919050	     -0.28450259	     36.12654513	     -1.02236599	      3.27846797	     56.80315145	      0.00000000	      0.00000000	      0.00000000	     33.04210037	      0.73542907	    -12.48171095	     60.24923501	      0.00000000	      0.00000000	      0.00000000	    -23.42830704	     -1.65920254	     -2.89015191	      0.00000000	      0.00000000	      0.00000000	      0.00000000	      0.00000000	      0.00000000	      0.00000000	      0.00000000	      0.00000000	      0.00000000
      7.38333330	     59.43050013	    -23.62281340	    162.60545252	     -0.11206109	      0.70664553	     -0.28597443	     36.32377979	     -1.14763481	      3.34083183	     56.51710077	      0.00000000	      0.00000000	      0.00000000	     33.22562029	      0.89499575	    -12.61009092	     59.82698025	      0.00000000	      0.00000000	      0.00000000	    -23.31837702	     -1.88551356	     -3.16357542	      0.00000000	      0.00000000	      0.00000000	      0.00000000	      0.00000000	      0.00000000	      0.00000000	      0.00000000	      0.00000000	      0.00000000
      7.40000000	     59.81595844	    -23.79600372	    162.80659869	     -0.11441985	      0.70428453	     -0.28756973	     36.30721137	     -1.16698665	      3.41492164	     56.16808713	      0.00000000	      0.00000000	      0.00000000	     33.22884445	      0.95923206	    -12.73820637	     59.42288595	      0.00000000	      0.00000000	      0.00000000	    -23.35965296	     -1.99721687	     -3.19182587	      0.00000000	      0.00000000	      0.00000000	      0.00000000	      0.00000000	      0.00000000	      0.00000000	      0.00000000	      0.00000000	      0.00000000
      7.41666670	     60.25205690	    -24.11099583	    163.01733988	     -0.11658753	      0.70234244	     -0.28929745	     36.43660637	     -1.27870141	      3.56887171	     55.86207323	      0.00000000	      0.00000000	      0.00000000	     33.26808649	      1.12342142	    -12.97685901	     58.94226331	      0.00000000	      0.00000000	      0.00000000	    -23.32187952	     -2.28060241	     -3.22086580	      0.00000000	      0.00000000	      0.00000000	      0.00000000	      0.00000000	      0.00000000	      0.00000000	      0.00000000	      0.00000000	      0.00000000
      7.43333330	     60.76298141	    -24.52329914	    163.16435102	     -0.11823150	      0.69964433	     -0.29080454	     36.81089276	     -1.41164245	      3.82567637	     55.76601540	      0.00000000	      0.00000000	      0.00000000	     33.39050385	      1.30607770	    -13.36213068	     58.47694431	      0.00000000	      0.00000000	      0.00000000	    -23.21007409	     -2.68911717	     -3.21222498	      0.00000000	      0.00000000	      0.00000000	      0.00000000	      0.00000000	      0.00000000	      0.00000000	      0.00000000	      0.00000000	      0.00000000
      7.45000000	     61.27866265	    -24.87479286	    163.31897679	     -0.11999213	      0.69703496	     -0.29222776	     37.12623039	     -1.50672119	      4.05625050	     55.59493836	      0.00000000	      0.00000000	      0.00000000	     33.48042437	      1.44792885	    -13.72675991	     57.98935689	      0.00000000	      0.00000000	      0.00000000	    -23.07737618	     -2.97825198	     -3.12024729	      0.00000000	      0.00000000	      0.00000000	      0.00000000	      0.00000000	      0.00000000	      0.00000000	      0.00000000	      0.00000000	      0.00000000
      7.46666670	     61.79898796	    -25.21877839	    163.44137035	     -0.12169254	      0.69429462	     -0.29354754	     37.45568537	     -1.59511105	      4.29142194	     55.45338184	      0.00000000	      0.00000000	      0.00000000	     33.53581519	      1.58567898	    -14.09878641	     57.44640400	      0.00000000	      0.00000000	      0.00000000	    -22.92792870	     -3.25757205	     -2.97583715	      0.00000000	      0.00000000	      0.00000000	      0.00000000	      0.00000000	      0.00000000	      0.00000000	      0.00000000	      0.00000000	      0.00000000
      7.48333330	     62.33075083	    -25.57618658	    163.53895613	     -0.12332457	      0.69109201	     -0.29467915	     37.79621961	     -1.70748003	      4.54808170	     55.29733295	      0.00000000	      0.00000000	      0.00000000	     33.59776858	      1.74318569	    -14.50147104	     56.90548318	      0.00000000	      0.00000000	      0.00000000	    -22.73672935	     -3.51838174	     -2.78912882	      0.00000000	      0.00000000	      0.00000000	      0.00000000	      0.00000000	      0.00000000	      0.00000000	      0.00000000	      0.00000000	      0.00000000
      7.50000000	     62.84857081	    -25.91302741	    163.61745799	     -0.12515317	      0.68834319	     -0.29582817	     38.10870373	     -1.82116322	      4.80343150	     55.16066052	      0.00000000	      0.00000000	      0.00000000	     33.62525733	      1.89482873	    -14.87794763	     56.33815483	      0.00000000	      0.00000000	      0.00000000	    -22.57341270	     -3.77271362	     -2.61194735	      0.00000000	      0.00000000	      0.00000000	      0.00000000	      0.00000000	      0.00000000	      0.00000000	      0.00000000	      0.00000000	      0.00000000
      7.51666670	     63.36026501	    -26.26292738	    163.66995670	     -0.12704106	      0.68482867	     -0.29688599	     38.40571162	     -1.95913441	      5.06381973	     55.03782002	      0.00000000	      0.00000000	      0.00000000	     33.63644349	      2.08051388	    -15.23224790	     55.76071026	      0.00000000	      0.00000000	      0.00000000	    -22.37956843	     -4.03316879	     -2.43705626	      0.00000000	      0.00000000	      0.00000000	      0.00000000	      0.00000000	      0.00000000	      0.00000000	      0.00000000	      0.00000000	      0.00000000
      7.53333330	     63.85880234	    -26.60592148	    163.70331307	     -0.12921451	      0.68120706	     -0.29800962	     38.67976569	     -2.11193778	      5.30586121	     54.91660745	      0.00000000	      0.00000000	      0.00000000	     33.62208632	      2.27877626	    -15.55793010	     55.18120538	      0.00000000	      0.00000000	      0.00000000	    -22.17521785	     -4.28877155	     -2.27086581	      0.00000000	      0.00000000	      0.00000000	      0.00000000	      0.00000000	      0.00000000	      0.00000000	      0.00000000	      0.00000000	      0.00000000
      7.55000000	     64.35943356	    -26.94675377	    163.71885715	     -0.13170312	      0.67707046	     -0.29918608	     38.92529889	     -2.27201539	      5.55083715	     54.82464450	      0.00000000	      0.00000000	      0.00000000	     33.57510412	      2.48000446	    -15.86438938	     54.59946639	      0.00000000	      0.00000000	      0.00000000	    -21.92921779	     -4.52665138	     -2.11186548	      0.00000000	      0.00000000	      0.00000000	      0.00000000	      0.00000000	      0.00000000	      0.00000000	      0.00000000	      0.00000000	      0.00000000
      7.56666670	     64.85969396	    -27.26715519	    163.73673878	     -0.13469110	      0.67343746	     -0.30050196	     39.11928617	     -2.43320611	      5.75497126	     54.66910494	      0.00000000	      0.00000000	      0.00000000	     33.48474658	      2.69722921	    -16.09881250	     53.92722578	      0.00000000	      0.00000000	      0.00000000	    -21.71023429	     -4.75430809	     -1.95540890	      0.00000000	      0.00000000	      0.00000000	      0.00000000	      0.00000000	      0.00000000	      0.00000000	      0.00000000	      0.00000000	      0.00000000
      7.58333330	     65.28616842	    -27.46067974	    163.76573786	     -0.13812219	      0.66953240	     -0.30180898	     39.10123086	     -2.55163243	      5.83136377	     54.31717156	      0.00000000	      0.00000000	      0.00000000	     33.28799537	      2.85512069	    -16.22835115	     53.27787635	      0.00000000	      0.00000000	      0.00000000	    -21.57415052	     -4.75964990	     -1.89717859	      0.00000000	      0.00000000	      0.00000000	      0.00000000	      0.00000000	      0.00000000	      0.00000000	      0.00000000	      0.00000000	      0.00000000
